<svg width="112" height="112" viewBox="0 0 112 112" fill="none" xmlns="http://www.w3.org/2000/svg">
<rect width="112" height="112" rx="56" fill="#EDEAE8"/>
<path d="M89.6658 16.3335C95.6536 19.9111 99.5729 26.6706 102.558 33.7544C105.544 40.8382 107.541 50.9856 107.578 58.8363C107.615 66.6869 106.295 74.1393 102.781 80.8585C99.2668 87.5776 92.8786 94.7527 86.4922 99.1513C80.1057 103.55 72.0547 105.935 64.4623 107.25C56.87 108.565 48.4442 109.055 40.9381 107.042C33.432 105.028 24.9723 100.772 19.4258 95.1686C13.8793 89.5654 10.1976 81.1839 7.65908 73.4222C5.12056 65.6605 3.40258 56.2202 4.19472 48.5984C4.98686 40.9765 7.98658 33.876 12.4119 27.6913C16.8373 21.5066 23.9197 15.4271 30.7468 11.4902C37.5739 7.55331 45.4302 4.38496 53.3745 4.07001C61.3188 3.75507 70.1327 4.32044 78.4124 9.60055C86.6921 14.8806 98.4371 27.0427 103.053 35.7506C107.668 44.4586 106.814 61.259 106.106 61.8484M59.7871 5.33784C67.1647 4.9016 73.5944 7.77761 79.9064 11.2977C86.2183 14.8177 92.8503 20.476 97.6588 26.4582C102.467 32.4403 107.641 39.188 108.757 47.1908C109.874 55.1936 106.916 66.7125 104.36 74.4748C101.804 82.2371 98.9565 88.7472 93.4228 93.7645C87.8891 98.7819 78.5612 102.053 71.1578 104.579C63.7543 107.105 56.4362 109.432 49.0023 108.922C41.5683 108.412 32.6378 105.783 26.554 101.521C20.4702 97.2596 16.0908 90.3435 12.4995 83.3531C8.90829 76.3628 5.6375 67.6514 5.00648 59.5789C4.37547 51.5065 5.48812 42.3039 8.71345 34.9185C11.9388 27.533 18.2612 19.8986 24.3584 15.2662C30.4557 10.6337 39.4307 8.82191 45.297 7.12384C51.1633 5.42576 57.6428 5.45585 59.5561 5.07773C61.4693 4.69962 56.6338 4.28535 56.7762 4.85515" stroke="#4E5A65" stroke-width="3"/>
<path d="M34.9142 51.0996C34.8842 51.0617 34.8548 51.0225 34.8259 50.9818C32.8798 48.2449 33.5019 42.4564 35.1814 39.7769C36.37 37.8806 38.7432 37.2986 40.3747 38.6214C40.4819 38.7083 40.5859 38.8035 40.6862 38.907C43.3494 41.6574 42.2649 48.5408 41.414 51.9905C40.2957 56.5245 36.1507 55.2645 34.9886 51.3637C34.9627 51.2767 34.9379 51.1887 34.9142 51.0996Z" fill="#4E5A65"/>
<path d="M39.3258 38.9816C41.3699 41.1459 42.9007 45.7603 41.2577 48.9518C40.1931 51.0198 36.5388 53.3907 34.8259 50.9818C32.8798 48.2449 33.5019 42.4564 35.1814 39.7769C36.4481 37.756 39.0602 37.2278 40.6862 38.907C43.3494 41.6574 42.2649 48.5408 41.414 51.9905C40.2957 56.5245 36.1507 55.2645 34.9886 51.3637C33.8203 47.4415 34.8675 41.3838 38.033 39.3713C39.7998 38.2481 43.0642 38.0522 43.5222 41.0555" stroke="#4E5A65" stroke-linecap="round" stroke-linejoin="round"/>
<path d="M75.5967 51.0996C75.6266 51.0617 75.6561 51.0225 75.685 50.9818C77.6311 48.2449 77.009 42.4564 75.3294 39.7769C74.1408 37.8806 71.7676 37.2986 70.1362 38.6214C70.029 38.7083 69.925 38.8035 69.8247 38.907C67.1614 41.6574 68.2459 48.5408 69.0968 51.9905C70.2152 56.5245 74.3602 55.2645 75.5222 51.3637C75.5481 51.2767 75.5729 51.1887 75.5967 51.0996Z" fill="#4E5A65"/>
<path d="M71.1851 38.9816C69.1409 41.1459 67.6102 45.7603 69.2532 48.9518C70.3178 51.0198 73.9721 53.3907 75.685 50.9818C77.6311 48.2449 77.009 42.4564 75.3294 39.7769C74.0627 37.756 71.4507 37.2278 69.8247 38.907C67.1614 41.6574 68.2459 48.5408 69.0968 51.9905C70.2152 56.5245 74.3602 55.2645 75.5222 51.3637C76.6906 47.4415 75.6434 41.3838 72.4779 39.3713C70.7111 38.2481 67.4466 38.0522 66.9887 41.0555" stroke="#4E5A65" stroke-linecap="round" stroke-linejoin="round"/>
<path d="M29.4303 70.779C31.9755 74.9697 40.7077 83.351 55.2743 83.351C69.8409 83.351 78.1815 74.9697 80.5309 70.779C76.8109 75.5683 66.7866 85.147 56.449 85.147C43.527 85.147 38.8281 81.555 34.1292 77.3643" stroke="#4E5A65" stroke-width="3"/>
</svg>
